<svg width="24" height="24" viewBox="0 0 24 24" fill="none" xmlns="http://www.w3.org/2000/svg">
<g filter="url(#filter0_d)">
<path fill-rule="evenodd" clip-rule="evenodd" d="M4.3848e-05 4.65841C0.0992183 12.0828 3.26076 18.4428 8.49076 21.7394C8.64773 21.8384 8.84755 21.8384 9.00452 21.7394C14.2345 18.4428 17.3961 12.0828 17.4952 4.65841C17.4981 4.44353 17.36 4.25201 17.1567 4.18222C14.1536 3.15098 12.0422 2.08596 9.02678 0.0841284C8.85782 -0.0280428 8.63746 -0.0280428 8.4685 0.0841284C5.45308 2.08596 3.3417 3.15098 0.338575 4.18222C0.135321 4.25201 -0.0028248 4.44353 4.3848e-05 4.65841ZM9.06074 4.39788C6.1264 4.39788 3.74764 6.95064 3.74764 10.0996C3.74764 7.89534 5.76958 6.10841 8.26378 6.10841C9.53811 6.10841 10.6892 6.57486 11.5103 7.32512C11.5516 7.36293 11.5523 7.42746 11.5126 7.4671L10.8052 8.17501C10.744 8.23632 10.7844 8.3412 10.8709 8.34557L13.5823 8.4824C13.6387 8.48525 13.6862 8.44088 13.6873 8.38443L13.7429 5.46334C13.7446 5.37332 13.6358 5.32706 13.5722 5.39075L12.929 6.03437C12.8887 6.0747 12.823 6.07315 12.7837 6.03179C11.825 5.0212 10.5107 4.39788 9.06074 4.39788ZM8.43454 15.2312C11.3689 15.2312 13.7476 12.6785 13.7476 9.52946C13.7476 11.7338 11.7257 13.5207 9.2315 13.5207C7.95717 13.5207 6.80612 13.0542 5.98502 12.304C5.94365 12.2662 5.94303 12.2016 5.98265 12.162L6.69004 11.4541C6.7513 11.3928 6.7109 11.2879 6.62434 11.2835L3.91302 11.1467C3.85663 11.1438 3.80907 11.1882 3.808 11.2447L3.75236 14.1658C3.75065 14.2558 3.85945 14.302 3.92309 14.2383L4.56624 13.5947C4.60654 13.5544 4.67231 13.5559 4.71155 13.5973C5.67023 14.6079 6.98456 15.2312 8.43454 15.2312Z" transform="translate(5.43927 3.82659) scale(0.75)" fill="white"/>
</g>
<path d="M1.81076e-06 5.70175C1.81076e-06 2.55276 2.37876 0 5.3131 0C6.76309 0 8.07741 0.623326 9.03609 1.63391C9.07533 1.67527 9.1411 1.67682 9.1814 1.63649L9.82456 0.992866C9.88819 0.929183 9.99699 0.975442 9.99528 1.06546L9.93965 3.98655C9.93857 4.043 9.89101 4.08737 9.83462 4.08452L7.1233 3.94769C7.03675 3.94332 6.99635 3.83844 7.0576 3.77713L7.765 3.06923C7.80461 3.02958 7.804 2.96504 7.76262 2.92724C6.94152 2.17698 5.79047 1.71053 4.51614 1.71053C2.02194 1.71053 1.81076e-06 3.49746 1.81076e-06 5.70175Z" transform="translate(8.25 7.125) scale(0.75)" fill="white" fill-opacity="0.25"/>
<path d="M10 5.13158C10 8.28057 7.62124 10.8333 4.6869 10.8333C3.23691 10.8333 1.92259 10.21 0.963908 9.19943C0.924669 9.15806 0.858904 9.15651 0.818602 9.19684L0.175444 9.84047C0.111807 9.90415 0.0030117 9.85789 0.00472586 9.76788L0.0603539 6.84678C0.0614289 6.79033 0.10899 6.74597 0.165376 6.74881L2.8767 6.88564C2.96325 6.89001 3.00365 6.9949 2.9424 7.0562L2.23501 7.76411C2.19539 7.80375 2.19601 7.86829 2.23738 7.90609C3.05848 8.65635 4.20953 9.12281 5.48386 9.12281C7.97806 9.12281 10 7.33587 10 5.13158Z" transform="translate(8.25 7.125) scale(0.75)" fill="white" fill-opacity="0.25"/>
<defs>
<filter id="filter0_d" x="4.68927" y="3.45159" width="14.6215" height="17.8602" filterUnits="userSpaceOnUse" color-interpolation-filters="sRGB">
<feFlood flood-opacity="0" result="BackgroundImageFix"/>
<feColorMatrix in="SourceAlpha" type="matrix" values="0 0 0 0 0 0 0 0 0 0 0 0 0 0 0 0 0 0 255 0"/>
<feOffset dy="0.5"/>
<feGaussianBlur stdDeviation="0.5"/>
<feColorMatrix type="matrix" values="0 0 0 0 0 0 0 0 0 0 0 0 0 0 0 0 0 0 0.25 0"/>
<feBlend mode="normal" in2="BackgroundImageFix" result="effect1_dropShadow"/>
<feBlend mode="normal" in="SourceGraphic" in2="effect1_dropShadow" result="shape"/>
</filter>
</defs>
</svg>
