<svg width="204" height="64" viewBox="0 0 204 64" fill="none" xmlns="http://www.w3.org/2000/svg">
<g filter="url(#filter0_d)">
<path fill-rule="evenodd" clip-rule="evenodd" d="M4.39045e-05 4.65841C0.0992155 12.0828 3.26076 18.4429 8.49076 21.7394C8.64773 21.8384 8.84755 21.8384 9.00453 21.7394C14.2345 18.4429 17.3961 12.0828 17.4952 4.65841C17.4981 4.44353 17.36 4.25202 17.1567 4.18222C14.1536 3.15098 12.0422 2.08595 9.02678 0.0841312C8.85782 -0.0280437 8.63746 -0.0280437 8.4685 0.0841312C5.45308 2.08595 3.3417 3.15098 0.338573 4.18222C0.135323 4.25202 -0.00282666 4.44353 4.39045e-05 4.65841ZM9.06074 4.39788C6.1264 4.39788 3.74764 6.95065 3.74764 10.0996C3.74764 7.89534 5.76958 6.10841 8.26378 6.10841C9.53811 6.10841 10.6892 6.57487 11.5103 7.32512C11.5516 7.36292 11.5522 7.42747 11.5126 7.46711L10.8052 8.17501C10.744 8.23631 10.7844 8.3412 10.8709 8.34558L13.5823 8.48241C13.6386 8.48525 13.6862 8.44088 13.6873 8.38444L13.7429 5.46334C13.7446 5.37332 13.6358 5.32707 13.5722 5.39075L12.929 6.03437C12.8887 6.07471 12.823 6.07315 12.7837 6.03179C11.8251 5.02121 10.5107 4.39788 9.06074 4.39788ZM8.43454 15.2312C11.3689 15.2312 13.7476 12.6785 13.7476 9.52946C13.7476 11.7338 11.7257 13.5207 9.2315 13.5207C7.95717 13.5207 6.80612 13.0542 5.98502 12.304C5.94365 12.2662 5.94303 12.2016 5.98264 12.162L6.69004 11.4541C6.75129 11.3928 6.71089 11.2879 6.62434 11.2835L3.91301 11.1467C3.85663 11.1438 3.80907 11.1882 3.80799 11.2447L3.75236 14.1658C3.75065 14.2558 3.85945 14.302 3.92308 14.2384L4.56624 13.5947C4.60654 13.5544 4.67231 13.5559 4.71155 13.5973C5.67023 14.6079 6.98455 15.2312 8.43454 15.2312Z" transform="translate(14.5047 10.2042) scale(2)" fill="white"/>
</g>
<path d="M1.81076e-06 5.70175C1.81076e-06 2.55276 2.37876 0 5.3131 0C6.76309 0 8.07741 0.623326 9.03609 1.63391C9.07533 1.67527 9.1411 1.67682 9.1814 1.63649L9.82456 0.992866C9.88819 0.929183 9.99699 0.975442 9.99528 1.06546L9.93965 3.98655C9.93857 4.043 9.89101 4.08737 9.83462 4.08452L7.1233 3.94769C7.03675 3.94332 6.99635 3.83844 7.0576 3.77713L7.765 3.06923C7.80461 3.02958 7.804 2.96504 7.76262 2.92724C6.94152 2.17698 5.79047 1.71053 4.51614 1.71053C2.02194 1.71053 1.81076e-06 3.49746 1.81076e-06 5.70175Z" transform="translate(22 19) scale(2)" fill="white" fill-opacity="0.25"/>
<path d="M10 5.13158C10 8.28057 7.62124 10.8333 4.6869 10.8333C3.23691 10.8333 1.92259 10.21 0.963908 9.19943C0.924669 9.15806 0.858904 9.15651 0.818602 9.19684L0.175444 9.84047C0.111807 9.90415 0.0030117 9.85789 0.00472586 9.76788L0.0603539 6.84678C0.0614289 6.79033 0.10899 6.74597 0.165376 6.74881L2.8767 6.88564C2.96325 6.89001 3.00365 6.9949 2.9424 7.0562L2.23501 7.76411C2.19539 7.80375 2.19601 7.86829 2.23738 7.90609C3.05848 8.65635 4.20953 9.12281 5.48386 9.12281C7.97806 9.12281 10 7.33587 10 5.13158Z" transform="translate(22 19) scale(2)" fill="white" fill-opacity="0.25"/>
<g filter="url(#filter1_d)">
<path d="M3.424 11.312C5.04533 11.312 5.856 10.7573 5.856 9.648C5.856 9.30667 5.78133 9.01867 5.632 8.784C5.49333 8.53867 5.30133 8.33067 5.056 8.16C4.81067 7.97867 4.528 7.824 4.208 7.696C3.89867 7.568 3.568 7.44 3.216 7.312C2.81067 7.17333 2.42667 7.01867 2.064 6.848C1.70133 6.66667 1.38667 6.45867 1.12 6.224C0.853333 5.97867 0.64 5.69067 0.48 5.36C0.330667 5.02933 0.256 4.62933 0.256 4.16C0.256 3.18933 0.586667 2.432 1.248 1.888C1.90933 1.344 2.82133 1.072 3.984 1.072C4.656 1.072 5.264 1.14667 5.808 1.296C6.36267 1.43467 6.768 1.58933 7.024 1.76L6.528 3.024C6.304 2.88533 5.968 2.752 5.52 2.624C5.08267 2.48533 4.57067 2.416 3.984 2.416C3.68533 2.416 3.408 2.448 3.152 2.512C2.896 2.576 2.672 2.672 2.48 2.8C2.288 2.928 2.13333 3.09333 2.016 3.296C1.90933 3.488 1.856 3.71733 1.856 3.984C1.856 4.28267 1.91467 4.53333 2.032 4.736C2.14933 4.93867 2.31467 5.12 2.528 5.28C2.74133 5.42933 2.98667 5.568 3.264 5.696C3.552 5.824 3.86667 5.952 4.208 6.08C4.688 6.272 5.12533 6.464 5.52 6.656C5.92533 6.848 6.272 7.07733 6.56 7.344C6.85867 7.61067 7.088 7.93067 7.248 8.304C7.408 8.66667 7.488 9.10933 7.488 9.632C7.488 10.6027 7.13067 11.3493 6.416 11.872C5.712 12.3947 4.71467 12.656 3.424 12.656C2.98667 12.656 2.58133 12.624 2.208 12.56C1.84533 12.5067 1.52 12.4427 1.232 12.368C0.944 12.2827 0.693333 12.1973 0.48 12.112C0.277333 12.016 0.117333 11.936 0 11.872L0.464 10.592C0.709333 10.7307 1.08267 10.8853 1.584 11.056C2.08533 11.2267 2.69867 11.312 3.424 11.312Z" transform="translate(59.056 19.168) scale(2)" fill="white"/>
<path d="M12.0836 11.344C12.4356 11.344 12.745 11.3387 13.0116 11.328C13.289 11.3067 13.5183 11.2747 13.6996 11.232V8.752C13.593 8.69867 13.417 8.656 13.1716 8.624C12.937 8.58133 12.649 8.56 12.3076 8.56C12.0836 8.56 11.8436 8.576 11.5876 8.608C11.3423 8.64 11.113 8.70933 10.8996 8.816C10.697 8.912 10.5263 9.05067 10.3876 9.232C10.249 9.40267 10.1796 9.632 10.1796 9.92C10.1796 10.4533 10.3503 10.8267 10.6916 11.04C11.033 11.2427 11.497 11.344 12.0836 11.344ZM11.9556 3.888C12.553 3.888 13.0543 3.968 13.4596 4.128C13.8756 4.27733 14.2063 4.496 14.4516 4.784C14.7076 5.06133 14.889 5.39733 14.9956 5.792C15.1023 6.176 15.1556 6.60267 15.1556 7.072V12.272C15.0276 12.2933 14.8463 12.3253 14.6116 12.368C14.3876 12.4 14.1316 12.432 13.8436 12.464C13.5556 12.496 13.241 12.5227 12.8996 12.544C12.569 12.576 12.2383 12.592 11.9076 12.592C11.4383 12.592 11.0063 12.544 10.6116 12.448C10.217 12.352 9.87563 12.2027 9.58763 12C9.29963 11.7867 9.07562 11.5093 8.91562 11.168C8.75562 10.8267 8.67562 10.416 8.67562 9.936C8.67562 9.47733 8.76629 9.08267 8.94763 8.752C9.13963 8.42133 9.39563 8.15467 9.71562 7.952C10.0356 7.74933 10.409 7.6 10.8356 7.504C11.2623 7.408 11.7103 7.36 12.1796 7.36C12.329 7.36 12.4836 7.37067 12.6436 7.392C12.8036 7.40267 12.953 7.424 13.0916 7.456C13.241 7.47733 13.369 7.49867 13.4756 7.52C13.5823 7.54133 13.657 7.55733 13.6996 7.568V7.152C13.6996 6.90667 13.673 6.66667 13.6196 6.432C13.5663 6.18667 13.4703 5.97333 13.3316 5.792C13.193 5.6 13.001 5.45067 12.7556 5.344C12.521 5.22667 12.2116 5.168 11.8276 5.168C11.337 5.168 10.905 5.20533 10.5316 5.28C10.169 5.344 9.89696 5.41333 9.71562 5.488L9.53963 4.256C9.73163 4.17067 10.0516 4.09067 10.4996 4.016C10.9476 3.93067 11.433 3.888 11.9556 3.888Z" transform="translate(59.056 19.168) scale(2)" fill="white"/>
<path d="M20.875 0C21.3123 0 21.6857 0.0320002 21.995 0.0960007C22.315 0.16 22.539 0.218667 22.667 0.272L22.395 1.552C22.267 1.488 22.0857 1.42933 21.851 1.376C21.6163 1.312 21.3283 1.28 20.987 1.28C20.2937 1.28 19.8083 1.472 19.531 1.856C19.2537 2.22933 19.115 2.736 19.115 3.376V4.096H22.315V5.344H19.115V12.416H17.627V3.344C17.627 2.27733 17.8883 1.456 18.411 0.88C18.9337 0.293333 19.755 0 20.875 0Z" transform="translate(59.056 19.168) scale(2)" fill="white"/>
<path d="M23.3349 8.272C23.3349 7.536 23.4415 6.896 23.6549 6.352C23.8682 5.79733 24.1509 5.33867 24.5029 4.976C24.8549 4.61333 25.2602 4.34133 25.7189 4.16C26.1775 3.97867 26.6469 3.888 27.1269 3.888C28.2469 3.888 29.1055 4.24 29.7029 4.944C30.3002 5.63733 30.5989 6.69867 30.5989 8.128C30.5989 8.192 30.5989 8.27733 30.5989 8.384C30.5989 8.48 30.5935 8.57067 30.5829 8.656H24.8869C24.9509 9.52 25.2015 10.176 25.6389 10.624C26.0762 11.072 26.7589 11.296 27.6869 11.296C28.2095 11.296 28.6469 11.2533 28.9989 11.168C29.3615 11.072 29.6335 10.9813 29.8149 10.896L30.0229 12.144C29.8415 12.24 29.5215 12.3413 29.0629 12.448C28.6149 12.5547 28.1029 12.608 27.5269 12.608C26.8015 12.608 26.1722 12.5013 25.6389 12.288C25.1162 12.064 24.6842 11.76 24.3429 11.376C24.0015 10.992 23.7455 10.5387 23.5749 10.016C23.4149 9.48267 23.3349 8.90133 23.3349 8.272ZM29.0469 7.456C29.0575 6.784 28.8869 6.23467 28.5349 5.808C28.1935 5.37067 27.7189 5.152 27.1109 5.152C26.7695 5.152 26.4655 5.22133 26.1989 5.36C25.9429 5.488 25.7242 5.65867 25.5429 5.872C25.3615 6.08533 25.2175 6.33067 25.1109 6.608C25.0149 6.88533 24.9509 7.168 24.9189 7.456H29.0469Z" transform="translate(59.056 19.168) scale(2)" fill="white"/>
<path d="M35.4084 11.312C37.0297 11.312 37.8404 10.7573 37.8404 9.648C37.8404 9.30667 37.7657 9.01867 37.6164 8.784C37.4777 8.53867 37.2857 8.33067 37.0404 8.16C36.795 7.97867 36.5124 7.824 36.1924 7.696C35.883 7.568 35.5524 7.44 35.2004 7.312C34.795 7.17333 34.411 7.01867 34.0484 6.848C33.6857 6.66667 33.371 6.45867 33.1044 6.224C32.8377 5.97867 32.6244 5.69067 32.4644 5.36C32.315 5.02933 32.2404 4.62933 32.2404 4.16C32.2404 3.18933 32.571 2.432 33.2324 1.888C33.8937 1.344 34.8057 1.072 35.9684 1.072C36.6404 1.072 37.2484 1.14667 37.7924 1.296C38.347 1.43467 38.7524 1.58933 39.0084 1.76L38.5124 3.024C38.2884 2.88533 37.9524 2.752 37.5044 2.624C37.067 2.48533 36.555 2.416 35.9684 2.416C35.6697 2.416 35.3924 2.448 35.1364 2.512C34.8804 2.576 34.6564 2.672 34.4644 2.8C34.2724 2.928 34.1177 3.09333 34.0004 3.296C33.8937 3.488 33.8404 3.71733 33.8404 3.984C33.8404 4.28267 33.899 4.53333 34.0164 4.736C34.1337 4.93867 34.299 5.12 34.5124 5.28C34.7257 5.42933 34.971 5.568 35.2484 5.696C35.5364 5.824 35.851 5.952 36.1924 6.08C36.6724 6.272 37.1097 6.464 37.5044 6.656C37.9097 6.848 38.2564 7.07733 38.5444 7.344C38.843 7.61067 39.0724 7.93067 39.2324 8.304C39.3924 8.66667 39.4724 9.10933 39.4724 9.632C39.4724 10.6027 39.115 11.3493 38.4004 11.872C37.6964 12.3947 36.699 12.656 35.4084 12.656C34.971 12.656 34.5657 12.624 34.1924 12.56C33.8297 12.5067 33.5044 12.4427 33.2164 12.368C32.9284 12.2827 32.6777 12.1973 32.4644 12.112C32.2617 12.016 32.1017 11.936 31.9844 11.872L32.4484 10.592C32.6937 10.7307 33.067 10.8853 33.5684 11.056C34.0697 11.2267 34.683 11.312 35.4084 11.312Z" transform="translate(59.056 19.168) scale(2)" fill="white"/>
<path d="M40.276 13.968C40.3933 14.0213 40.5427 14.0693 40.724 14.112C40.916 14.1653 41.1027 14.192 41.284 14.192C41.8707 14.192 42.3293 14.0587 42.66 13.792C42.9907 13.536 43.2893 13.1147 43.556 12.528C42.884 11.248 42.2547 9.89333 41.668 8.464C41.092 7.024 40.612 5.568 40.228 4.096H41.828C41.9453 4.576 42.084 5.09333 42.244 5.648C42.4147 6.20267 42.6013 6.77333 42.804 7.36C43.0067 7.94667 43.2253 8.53333 43.46 9.12C43.6947 9.70667 43.94 10.272 44.196 10.816C44.6013 9.696 44.9533 8.58667 45.252 7.488C45.5507 6.38933 45.8333 5.25867 46.1 4.096H47.636C47.252 5.664 46.8253 7.17333 46.356 8.624C45.8867 10.064 45.38 11.4133 44.836 12.672C44.6227 13.152 44.3987 13.5627 44.164 13.904C43.94 14.256 43.6893 14.544 43.412 14.768C43.1347 14.992 42.82 15.1573 42.468 15.264C42.1267 15.3707 41.7373 15.424 41.3 15.424C41.1827 15.424 41.06 15.4133 40.932 15.392C40.804 15.3813 40.676 15.36 40.548 15.328C40.4307 15.3067 40.3187 15.28 40.212 15.248C40.116 15.216 40.0467 15.1893 40.004 15.168L40.276 13.968Z" transform="translate(59.056 19.168) scale(2)" fill="white"/>
<path d="M49.2051 4.336C49.5465 4.25067 49.9998 4.16 50.5651 4.064C51.1305 3.968 51.7811 3.92 52.5171 3.92C53.1785 3.92 53.7278 4.016 54.1651 4.208C54.6025 4.38933 54.9491 4.65067 55.2051 4.992C55.4718 5.32267 55.6585 5.72267 55.7651 6.192C55.8718 6.66133 55.9251 7.17867 55.9251 7.744V12.416H54.4371V8.064C54.4371 7.552 54.3998 7.11467 54.3251 6.752C54.2611 6.38933 54.1491 6.096 53.9891 5.872C53.8291 5.648 53.6158 5.488 53.3491 5.392C53.0825 5.28533 52.7518 5.232 52.3571 5.232C52.1971 5.232 52.0318 5.23733 51.8611 5.248C51.6905 5.25867 51.5251 5.27467 51.3651 5.296C51.2158 5.30667 51.0771 5.32267 50.9491 5.344C50.8318 5.36533 50.7465 5.38133 50.6931 5.392V12.416H49.2051V4.336Z" transform="translate(59.056 19.168) scale(2)" fill="white"/>
<path d="M62.0086 12.608C61.3366 12.608 60.7446 12.5013 60.2326 12.288C59.7313 12.0747 59.3046 11.776 58.9526 11.392C58.6113 11.008 58.3553 10.5547 58.1846 10.032C58.014 9.49867 57.9286 8.912 57.9286 8.272C57.9286 7.632 58.0193 7.04533 58.2006 6.512C58.3926 5.97867 58.6593 5.52 59.0006 5.136C59.342 4.74133 59.758 4.43733 60.2486 4.224C60.75 4 61.3046 3.888 61.9126 3.888C62.286 3.888 62.6593 3.92 63.0326 3.984C63.406 4.048 63.7633 4.14933 64.1046 4.288L63.7686 5.552C63.5446 5.44533 63.2833 5.36 62.9846 5.296C62.6966 5.232 62.3873 5.2 62.0566 5.2C61.2246 5.2 60.5846 5.46133 60.1366 5.984C59.6993 6.50667 59.4806 7.26933 59.4806 8.272C59.4806 8.72 59.5286 9.13067 59.6246 9.504C59.7313 9.87733 59.8913 10.1973 60.1046 10.464C60.3286 10.7307 60.6113 10.9387 60.9526 11.088C61.294 11.2267 61.71 11.296 62.2006 11.296C62.5953 11.296 62.9526 11.2587 63.2726 11.184C63.5926 11.1093 63.8433 11.0293 64.0246 10.944L64.2326 12.192C64.1473 12.2453 64.0246 12.2987 63.8646 12.352C63.7046 12.3947 63.5233 12.432 63.3206 12.464C63.118 12.5067 62.8993 12.5387 62.6646 12.56C62.4406 12.592 62.222 12.608 62.0086 12.608Z" transform="translate(59.056 19.168) scale(2)" fill="white"/>
</g>
<defs>
<filter id="filter0_d" x="12.5047" y="9.20424" width="38.9906" height="47.6273" filterUnits="userSpaceOnUse" color-interpolation-filters="sRGB">
<feFlood flood-opacity="0" result="BackgroundImageFix"/>
<feColorMatrix in="SourceAlpha" type="matrix" values="0 0 0 0 0 0 0 0 0 0 0 0 0 0 0 0 0 0 255 0"/>
<feOffset dy="0.5"/>
<feGaussianBlur stdDeviation="0.5"/>
<feColorMatrix type="matrix" values="0 0 0 0 0 0 0 0 0 0 0 0 0 0 0 0 0 0 0.25 0"/>
<feBlend mode="normal" in2="BackgroundImageFix" result="effect1_dropShadow"/>
<feBlend mode="normal" in="SourceGraphic" in2="effect1_dropShadow" result="shape"/>
</filter>
<filter id="filter1_d" x="57.056" y="18.168" width="132.465" height="34.848" filterUnits="userSpaceOnUse" color-interpolation-filters="sRGB">
<feFlood flood-opacity="0" result="BackgroundImageFix"/>
<feColorMatrix in="SourceAlpha" type="matrix" values="0 0 0 0 0 0 0 0 0 0 0 0 0 0 0 0 0 0 255 0"/>
<feOffset dy="0.5"/>
<feGaussianBlur stdDeviation="0.5"/>
<feColorMatrix type="matrix" values="0 0 0 0 0 0 0 0 0 0 0 0 0 0 0 0 0 0 0.1 0"/>
<feBlend mode="normal" in2="BackgroundImageFix" result="effect1_dropShadow"/>
<feBlend mode="normal" in="SourceGraphic" in2="effect1_dropShadow" result="shape"/>
</filter>
</defs>
</svg>
