<svg width="24" height="24" viewBox="0 0 24 24" fill="none" xmlns="http://www.w3.org/2000/svg">
<g filter="url(#filter0_d)">
<path fill-rule="evenodd" clip-rule="evenodd" d="M0.00240469 4.76053C0.101576 12.1849 3.26312 18.545 8.49312 21.8416C8.65009 21.9405 8.84991 21.9405 9.00689 21.8416C14.2369 18.545 17.3984 12.1849 17.4976 4.76053C17.5005 4.54565 17.3623 4.35413 17.1591 4.28434C14.1559 3.2531 12.0446 2.18808 9.02914 0.186249C8.86018 0.0740776 8.63982 0.0740776 8.47086 0.186249C5.45544 2.18808 3.34406 3.2531 0.340934 4.28434C0.137684 4.35413 -0.00046587 4.54565 0.00240469 4.76053ZM9.0631 4.5C6.12876 4.5 3.75 7.05276 3.75 10.2018C3.75 7.99746 5.77194 6.21053 8.26614 6.21053C9.54047 6.21053 10.6915 6.67698 11.5126 7.42724C11.554 7.46505 11.5546 7.52958 11.515 7.56923L10.8076 8.27713C10.7463 8.33844 10.7867 8.44333 10.8733 8.44769L13.5846 8.58452C13.641 8.58737 13.6886 8.543 13.6896 8.48655L13.7453 5.56546C13.747 5.47544 13.6382 5.42918 13.5746 5.49287L12.9314 6.13649C12.8911 6.17682 12.8253 6.17527 12.7861 6.13391C11.8274 5.12333 10.5131 4.5 9.0631 4.5ZM8.4369 15.3333C11.3712 15.3333 13.75 12.7806 13.75 9.63158C13.75 11.8359 11.7281 13.6228 9.23386 13.6228C7.95953 13.6228 6.80848 13.1563 5.98738 12.4061C5.94601 12.3683 5.94539 12.3037 5.98501 12.2641L6.6924 11.5562C6.75365 11.4949 6.71325 11.39 6.6267 11.3856L3.91538 11.2488C3.85899 11.246 3.81143 11.2903 3.81035 11.3468L3.75473 14.2679C3.75301 14.3579 3.86181 14.4042 3.92544 14.3405L4.5686 13.6968C4.6089 13.6565 4.67467 13.6581 4.71391 13.6994C5.67259 14.71 6.98691 15.3333 8.4369 15.3333Z" transform="translate(5.4375 3.75) scale(0.75)" fill="url(#paint0_linear)"/>
</g>
<path d="M1.81076e-06 5.70175C1.81076e-06 2.55276 2.37876 0 5.3131 0C6.76309 0 8.07741 0.623326 9.03609 1.63391C9.07533 1.67527 9.1411 1.67682 9.1814 1.63649L9.82456 0.992866C9.88819 0.929183 9.99699 0.975442 9.99528 1.06546L9.93965 3.98655C9.93857 4.043 9.89101 4.08737 9.83462 4.08452L7.1233 3.94769C7.03675 3.94332 6.99635 3.83844 7.0576 3.77713L7.765 3.06923C7.80461 3.02958 7.804 2.96504 7.76262 2.92724C6.94152 2.17698 5.79047 1.71053 4.51614 1.71053C2.02194 1.71053 1.81076e-06 3.49746 1.81076e-06 5.70175Z" transform="translate(8.25 7.125) scale(0.75)" fill="#1890FB" fill-opacity="0.15"/>
<path d="M10 5.13158C10 8.28057 7.62124 10.8333 4.6869 10.8333C3.23691 10.8333 1.92259 10.21 0.963908 9.19943C0.924669 9.15806 0.858904 9.15651 0.818602 9.19684L0.175444 9.84047C0.111807 9.90415 0.0030117 9.85789 0.00472586 9.76788L0.0603539 6.84678C0.0614289 6.79033 0.10899 6.74597 0.165376 6.74881L2.8767 6.88564C2.96325 6.89001 3.00365 6.9949 2.9424 7.0562L2.23501 7.76411C2.19539 7.80375 2.19601 7.86829 2.23738 7.90609C3.05848 8.65635 4.20953 9.12281 5.48386 9.12281C7.97806 9.12281 10 7.33587 10 5.13158Z" transform="translate(8.25 7.125) scale(0.75)" fill="#1890FB" fill-opacity="0.15"/>
<defs>
<filter id="filter0_d" x="4.68927" y="3.45159" width="14.6215" height="17.8602" filterUnits="userSpaceOnUse" color-interpolation-filters="sRGB">
<feFlood flood-opacity="0" result="BackgroundImageFix"/>
<feColorMatrix in="SourceAlpha" type="matrix" values="0 0 0 0 0 0 0 0 0 0 0 0 0 0 0 0 0 0 255 0"/>
<feOffset dy="0.5"/>
<feGaussianBlur stdDeviation="0.5"/>
<feColorMatrix type="matrix" values="0 0 0 0 0 0 0 0 0 0 0 0 0 0 0 0 0 0 0.25 0"/>
<feBlend mode="normal" in2="BackgroundImageFix" result="effect1_dropShadow"/>
<feBlend mode="normal" in="SourceGraphic" in2="effect1_dropShadow" result="shape"/>
</filter>
<linearGradient id="paint0_linear" x2="1" gradientUnits="userSpaceOnUse" gradientTransform="matrix(18 22 -17.5 14.3182 8.5 -7.15909)">
<stop stop-color="#2979FF"/>
<stop offset="1" stop-color="#03A9F4"/>
</linearGradient>
</defs>
</svg>
